<svg xmlns="http://www.w3.org/2000/svg" width="375" height="375" fill="none" viewBox="0 0 375 375">
  <path fill="#fff" d="M82.031 369.141s-7.545-66.146 57.451-73.526h27.813v-12.812s19.564 8.403 39.375.937l.625 11.875h32.5s56.597 5.65 53.174 73.526H82.031z"/>
  <path fill="#3B434F" d="M292.428 370.303H80.001l1.008-17.234c1.97-33.649 28.482-59.329 58.821-59.329h23.09v3.438h-21.248c-29.241 0-54.793 24.718-56.691 57.107l-.7 11.955h207.597l-.389-11.955c-1.898-32.389-27.45-57.107-56.691-57.107h-28.441v-3.438h30.098c30.339 0 56.851 25.68 58.82 59.329l1.009 17.234h-3.856z"/>
  <path fill="#3B434F" d="M170.42 281.357v19.274c0 10.001 8.115 18.109 18.125 18.109s18.125-8.108 18.125-18.109v-18.876a61.53 61.53 0 003.125-1.044v20.051c0 11.828-9.584 21.416-21.406 21.416-11.823 0-21.407-9.588-21.407-21.416v-20.645c1.133.448 2.279.86 3.438 1.24zM166.826 318.428a2.03 2.03 0 012.031 2.031v30.625a2.03 2.03 0 11-4.062 0v-30.625a2.03 2.03 0 012.031-2.031zM209.482 318.115c1.209 0 2.188.98 2.188 2.188v19.062a2.188 2.188 0 11-4.375 0v-19.062c0-1.208.979-2.188 2.187-2.188z"/>
  <path fill="#3B434F" d="M166.826 350.928c.604 0 1.094.489 1.094 1.093v7.813a1.094 1.094 0 01-2.188 0v-7.813c0-.604.49-1.093 1.094-1.093zM209.639 339.365c.604 0 1.093.49 1.093 1.094v7.812a1.093 1.093 0 11-2.187 0v-7.812c0-.604.49-1.094 1.094-1.094z"/>
  <path fill="#F5F3EF" d="M155.102 273.667l-19.793 4.544s-24.238 5.491-8.112 21.826c16.125 16.336 57.598 19.221 57.598 19.221s-10.965-5.194-15.625-12.5l-1.563-26.25-12.505-6.841z"/>
  <path fill="#3B434F" fill-rule="evenodd" d="M185.42 320.82c-1.228 1.555-35.762.486-59.687-20.312-17.324-15.059 8.75-23.75 8.75-23.75l19.062-4.375 16.563 8.437 1.25 25.313c6.972 10.932 16.039 12.185 14.062 14.687zm-17.187-13.437l-1.875-26.563-10-5.625-19.063 4.688s-23.09 4.735-8.437 18.437c15.812 14.788 45.064 18.757 48.125 18.438 3.171-.331-1.778 1.557-8.75-9.375z" clip-rule="evenodd"/>
  <path fill="#F5F3EF" d="M221.967 274.403l19.805 4.558s24.252 5.507 8.117 21.891c-16.135 16.385-57.633 19.279-57.633 19.279s10.972-5.21 15.635-12.538l1.563-26.328 12.513-6.862z"/>
  <path fill="#3B434F" fill-rule="evenodd" d="M191.631 321.385c1.229 1.559 35.783.487 59.723-20.373 17.334-15.104-8.755-23.821-8.755-23.821l-19.074-4.388-16.572 8.462-1.251 25.389c-6.976 10.965-16.049 12.221-14.071 14.731zm17.198-13.477l1.876-26.643 10.006-5.641 19.074 4.701s23.103 4.749 8.442 18.493c-15.822 14.832-45.091 18.813-48.153 18.493-3.174-.332 1.778 1.562 8.755-9.403z" clip-rule="evenodd"/>
  <path fill="#fff" d="M189.855 85.303c38.875 0 69.559 36.329 68.562 79.979l-1.061 46.392c-.94 41.123-31.151 73.629-67.501 73.629-36.351 0-66.562-32.506-67.502-73.629l-1.061-46.392c-.997-43.65 29.687-79.98 68.563-79.98z"/>
  <path fill="#3B434F" fill-rule="evenodd" d="M261.54 163.844l-1.111 48.277c-.985 42.793-32.641 76.619-70.731 76.619-38.089 0-69.745-33.826-70.73-76.619l-1.111-48.277c-1.046-45.424 31.106-83.229 71.841-83.229 40.735 0 72.888 37.805 71.842 83.229zm-71.998-78.229c-38.344 0-68.609 36.045-67.624 79.355l1.045 46.03c.928 40.801 30.726 73.053 66.579 73.053 35.854 0 65.652-32.252 66.579-73.053l1.046-46.03c.984-43.31-29.281-79.355-67.625-79.355z" clip-rule="evenodd"/>
  <path fill="#3B434F" d="M223.447 239.741c-5.68 4.932-18.509 9.624-33.437 9.624-14.928 0-27.758-4.692-33.438-9.624 0 0-.581-1.599.272-2.452.868-.868 2.228-.679 2.228-.679 5.674 4.935 16.004 9.005 30.938 9.005 14.933 0 25.263-4.07 30.937-9.005 0 0 1.388-.516 2.062.158 1.299 1.299.438 2.973.438 2.973zM179.697 256.865h20v3.125h-20v-3.125z"/>
  <path fill="#fff" d="M117.779 170.884c-.009 0-.768-.606-2.2-1.057a10.351 10.351 0 00-3.401-.462 10.054 10.054 0 00-2.521.386c-2.308.664-4.662 2.276-6.045 5.605-.694 1.664-1.152 3.758-1.273 6.377-.03.655-.04 1.342-.026 2.064.013.723.049 1.479.109 2.271a55.66 55.66 0 00.657 5.196c-.007-.001-.3 5.691 1.735 12.233 1.914 6.395 6.508 14.251 14.991 16.496-.976-16.244-1.006-32.793-2.026-49.109z"/>
  <path fill="#3B434F" d="M118.746 171.539s-14.778-4.579-14.257 10.613c0 0 2.2 22.029 3.155 24.059 0 0 5.804 12.827 15.382 13.395 9.361.556 0 0 0 0l.116 4.134s-16.835-2.158-20.086-21.558l-2.566-17.624s-1.993-23.324 17.336-17.394c18.83 5.777 0 0 0 0l.92 4.375z"/>
  <path fill="#3B434F" d="M113.868 202.145s-.827.625-1.537.625-1.527-.625-1.527-.625l-1.525-15.369s2.104-7.568 11.033-3.568l.211 4.394s-7.834-2.778-7.672.681c.156 3.33 1.017 13.862 1.017 13.862z"/>
  <path fill="#fff" d="M261.338 170.92c.009 0 .771-.605 2.21-1.056a10.436 10.436 0 013.416-.462c.267.007.541.025.82.055.557.059 1.132.165 1.711.331 2.318.663 4.683 2.274 6.072 5.601.697 1.663 1.157 3.755 1.279 6.372.03.655.039 1.342.026 2.064a38.636 38.636 0 01-.11 2.269 55.656 55.656 0 01-.66 5.192c.007-.001.301 5.688-1.743 12.224-1.921 6.392-6.536 14.243-15.056 16.486.98-16.234 1.011-32.772 2.035-49.076z"/>
  <path fill="#3B434F" d="M260.363 171.574s14.843-4.576 14.32 10.606c0 0-2.21 22.014-3.169 24.043 0 0-5.829 12.818-15.449 13.386-9.402.555 0 0 0 0l-.117 4.131s16.908-2.157 20.174-21.544l2.578-17.612s2.001-23.308-17.412-17.381c-18.913 5.773 0 0 0 0l-.925 4.371z"/>
  <path fill="#3B434F" d="M265.262 202.159s.831.625 1.544.625c.714 0 1.534-.625 1.534-.625l1.532-15.358s-2.113-7.563-11.081-3.566l-.212 4.391s7.868-2.776 7.705.681c-.156 3.328-1.022 13.852-1.022 13.852z"/>
  <path fill="#3B434F" fill-rule="evenodd" d="M195.479 200.928h1.093c2.262 3.071 3.182 7.79 4.375 11.875.37 1.266.011 3.48-.312 4.375-1.185 3.278-4.906 3.219-7.969 4.687-.823.395-1.434 1.075-2.5 1.25-.694-.612-1.533-.732-1.875-1.719-.844-1.162.244-1.887 1.094-2.343 1.543-.828 6.305-1.643 6.875-3.125.705-.803.236-3.216 0-4.063-.606-2.169-.896-3.981-1.719-5.937-.546-1.3-1.506-2.67-.937-4.219.471-.202 1.489-.432 1.875-.781z" clip-rule="evenodd"/>
  <path fill="#3B434F" d="M150.01 178.865h11.25c1.553 0 2.812 1.511 2.812 3.375s-1.259 3.375-2.812 3.375h-11.25c-1.554 0-2.813-1.511-2.813-3.375s1.259-3.375 2.813-3.375zM218.76 178.115h11.25c1.553 0 2.812 1.511 2.812 3.375s-1.259 3.375-2.812 3.375h-11.25c-1.554 0-2.813-1.511-2.813-3.375s1.259-3.375 2.813-3.375z"/>
  <path fill="#3B444F" fill-rule="evenodd" d="M257.768 167.636c-.422 3.611-.794 8.03-1.575 11.98-2.334 11.813-12.485 22.758-29.816 24.005-17.332 1.247-32.083-7.479-32.948-19.489-.146-2.036-.538-4.322-.839-6.543-2.453-1.36-4.981-1.363-7.584-.009-.304 2.272-.711 4.617-.861 6.702-.867 12.05-15.665 20.804-33.051 19.553-17.387-1.251-27.569-12.232-29.911-24.084-.784-3.963-1.156-8.397-1.58-12.019l-2.555-.184.359-4.987.623.045 15.812 1.137 13.347.961 13.372.962 20.827 1.499c1.437.182 2.392.798 3.007 1.717 2.991 1.31 5.896 1.315 8.715.016.609-.979 1.577-1.638 3.067-1.826l20.762-1.494 13.33-.959 13.305-.958 15.762-1.134.622-.044.357 4.97-2.547.183zm-81.972 5.389l-40.819-2.937c-5.339-.46-7.231 5.539-7.561 10.112-.693 9.64 10.048 18.268 23.992 19.271 13.943 1.004 25.809-5.998 26.503-15.638.329-4.572 1.822-7.396-2.115-10.808zm74.183 7.038c-.328-4.557-2.214-10.537-7.536-10.078l-40.691 2.928c-3.925 3.4-2.436 6.214-2.108 10.772.691 9.608 12.52 16.586 26.42 15.586 13.899-1 24.607-9.6 23.915-19.208z" clip-rule="evenodd"/>
  <path fill="#3B444F" fill-rule="evenodd" d="M257.768 167.636c-.422 3.611-.794 8.03-1.575 11.98-2.334 11.813-12.485 22.758-29.816 24.005-17.332 1.247-32.083-7.479-32.948-19.489-.146-2.036-.538-4.322-.839-6.543-2.453-1.36-4.981-1.363-7.584-.009-.304 2.272-.711 4.617-.861 6.702-.867 12.05-15.665 20.804-33.051 19.553-17.387-1.251-27.569-12.232-29.911-24.084-.784-3.963-1.156-8.397-1.58-12.019l-2.555-.184.359-4.987.623.045 15.812 1.137 13.347.961 13.372.962 20.827 1.499c1.437.182 2.392.798 3.007 1.717 2.991 1.31 5.896 1.315 8.715.016.609-.979 1.577-1.638 3.067-1.826l20.762-1.494 13.33-.959 13.305-.958 15.762-1.134.622-.044.357 4.97-2.547.183zm-81.972 5.389l-40.819-2.937c-5.339-.46-7.231 5.539-7.561 10.112-.693 9.64 10.048 18.268 23.992 19.271 13.943 1.004 25.809-5.998 26.503-15.638.329-4.572 1.822-7.396-2.115-10.808zm74.183 7.038c-.328-4.557-2.214-10.537-7.536-10.078l-40.691 2.928c-3.925 3.4-2.436 6.214-2.108 10.772.691 9.608 12.52 16.586 26.42 15.586 13.899-1 24.607-9.6 23.915-19.208z" clip-rule="evenodd"/>
  <path fill="#9EA0A4" d="M119.935 169s2.411-37.644 25.642-54.375c0 0 33.542 22.817 86.306 0 0 0 23.339 10.63 26.893 54.375h1.253s6.682-50.107-10.634-70c0 0-4.266-15.234-26.893-26.25l-8.13 5s-5.463-6.685-20.013-15c0 0-10.762 4.795-16.261 13.125l-8.756-5.625s-12.234 5.6-19.388 15.625l-13.133 1.875-6.88 12.5s-16.421 13.23-11.259 67.5l1.253 1.25z"/>
  <path fill="#3B434F" fill-rule="evenodd" d="M262.529 168.115l-5.94-.312C253.034 124.058 231.5 119 231.5 119c-52.764 22.817-85.923 0-85.923 0-20.291 17.31-23.455 49.428-23.455 49.428l-5.315-1.563c-5.162-54.27 11.259-68.437 11.259-68.437l7.505-13.75 13.758-1.875c7.154-10.025 20.326-16.25 20.326-16.25l8.167 5.312c5.499-8.33 16.875-12.5 16.875-12.5 14.551 8.316 20 14.688 20 14.688l8.43-4.688c22.627 11.016 28.768 28.438 28.768 28.438 17.316 19.892 10.634 70.312 10.634 70.312zm-14.707-69.062s-2.685-13.672-25.312-24.688l-8.438 5s-5.449-6.684-20-15c0 0-9.813 5.108-15.312 13.438l-9.375-5.938s-11.285 5.288-18.438 15.313l-12.5 1.875-6.562 11.875s-13.631 10.411-12.188 52.5l.313-.313s4.336-22.59 25.567-38.615c0 0 33.159 22.817 85.923 0 0 0 20.815 6.22 27.572 38.928 0 0 4.011-33.641-11.25-54.375z" clip-rule="evenodd"/>
  <path fill="#3B434F" fill-rule="evenodd" d="M190.532 75.932c.459.342.232.659.132 1.087-.149.638-.326 1.27-.425 1.906-.151.965-.289 1.93-.328 2.882-.033.8-.019 1.599-.005 2.391.008.458.086.915.098 1.373.004.183.054.367.059.553l.034.151c.006.234.068.457.074.69l.115.635c.056.335.083.685.186 1.011l.033.251c.082.26.108.527.19.787l.018.155c.118.375.172.77.29 1.142.193.606.349 1.214.561 1.818.141.4.262.82.404 1.223.251.717.559 1.418.836 2.127.168.432.394.831.575 1.261.511 1.217 1.167 2.413 1.795 3.606.203.386.425.74.65 1.116.144.241.292.51.425.757.073.137.165.24.244.373.173.288.36.598.529.888.158.269.335.498.508.76.187.282.372.599.562.883.329.492.678.968 1.004 1.454.339.505.72.953 1.079 1.45.695.966 1.508 1.891 2.257 2.86.225.29.493.543.717.824.112.14.299.262.375.409.031.06.048.153.07.22.034.109.026.244.027.36.002.185.011.372-.021.566-.034.2-.161.421-.244.619-.066.159-.232.299-.325.376-.079.065-.112.126-.192.189a2.135 2.135 0 01-.675.368c-.237.071-.544-.142-.731-.367-.328-.393-.738-.754-1.053-1.148-.067-.085-.142-.122-.208-.206-.363-.459-.809-.892-1.168-1.344-.082-.104-.172-.162-.251-.265-.279-.363-.606-.69-.889-1.06-.71-.928-1.475-1.824-2.117-2.759-.15-.218-.311-.391-.458-.61-1.039-1.553-2.082-3.079-2.915-4.661-.219-.417-.461-.795-.666-1.213a64.141 64.141 0 01-1.624-3.568c-.065-.157-.113-.333-.173-.493a64.286 64.286 0 01-.765-2.147c-.247-.726-.388-1.485-.619-2.213-.049-.154-.063-.32-.113-.478l-.02-.17c-.054-.17-.06-.352-.112-.519-.125-.4-.164-.832-.233-1.243-.065-.388-.154-.785-.165-1.18a16.186 16.186 0 00-.044-.216c-.007-.257-.072-.51-.078-.764-.012-.443-.082-.884-.09-1.325-.01-.55-.031-1.1-.028-1.65.003-.55.049-1.087.081-1.642.085-1.503.36-3.013.723-4.569.132-.564.343-1.117.521-1.682.122-.39.315-.765.452-1.15.036-.1.092-.16.13-.262.083-.217.191-.484.392-.627a.592.592 0 01.402-.066c.074.022.12.078.187.076zm-14.666 10.773c.333.24.307.594.315.89.008.309.097.615.105.926l.108.644c.005.174.048.338.077.508.029.175.042.35.096.522l.097.58c.053.17.059.351.111.518.162.517.224 1.065.389 1.581.175.547.303 1.113.493 1.655.248.71.491 1.426.762 2.132.138.36.303.698.45 1.058.113.275.22.575.348.844a95.841 95.841 0 001.669 3.346c.464.881 1.018 1.722 1.526 2.592.157.268.334.498.508.759.392.589.81 1.202 1.211 1.801.38.566.837 1.093 1.236 1.647.065.091.141.14.204.231.203.293.468.574.69.862.112.144.254.245.356.396.223.33.363.946.256 1.33-.184.665-.826 1.113-1.315 1.285-.147.051-.378.145-.538.097-.252-.076-.414-.3-.561-.486-.191-.24-.413-.414-.598-.654-.341-.442-.742-.838-1.083-1.284-.715-.934-1.446-1.839-2.081-2.79-1.469-2.201-2.687-4.424-3.638-6.707-.394-.948-.712-1.926-1.03-2.89-.113-.343-.175-.71-.284-1.052-.149-.47-.215-.954-.362-1.42l-.023-.187c-.023-.104-.059-.205-.076-.31l-.037-.267c-.055-.176-.068-.358-.098-.537-.029-.175-.075-.346-.08-.525l-.066-.344c-.013-.47-.125-.928-.135-1.4-.002-.112-.038-.23-.04-.341-.011-.452-.056-.904-.054-1.356.003-.514-.002-1.037.03-1.551.013-.203.048-.394.057-.597.01-.222.049-.436.079-.666.017-.136.017-.302.059-.44.041-.14.185-.367.317-.425.091-.04.265-.079.364-.051.074.02.12.078.186.076zm-11.206 2.336c.374.274.27.62.268.956-.004.54.05 1.08.064 1.618.011.43.121.856.132 1.285l.077.41c.007.237.058.544.13.772l.02.17c.022.132.05.261.09.39l.028.219c.097.307.126.635.224.939.233.726.419 1.47.674 2.195.552 1.573 1.309 3.098 2.115 4.628.263.5.591.966.857 1.463.113.211.262.383.388.589.344.56.742 1.12 1.116 1.675.518.77 1.148 1.471 1.698 2.233.193.267.436.499.623.757.166.229.382.401.56.627.353.447.798.873 1.172 1.319.216.257.473.465.682.714.234.278.527.5.757.768l.175.153c.235.277.562.523.804.801.104.118.226.174.331.293.339.386.818.698 1.166 1.088.1.111.232.187.321.286l.113.081c.12.134.308.256.43.392l.122.087c.199.221.506.396.707.619l.16.114c.256.283.663.486.924.773l.35.265c.057.062.18.117.247.19.177.195.476.348.669.534.113.111.292.186.387.292.085.093.239.155.313.237l.733.524c.578.413 1.155.801 1.714 1.197.265.187.594.335.757.569.093.132.13.322.178.467.109.324.154.71.062 1.064-.027.108-.084.181-.124.294-.065.181-.173.461-.366.631-.125.11-.256.259-.395.355-.215.148-.449.069-.71-.04l-.251-.165c-.401-.172-.776-.541-1.179-.714-.077-.034-.158-.118-.222-.145l-.402-.273c-.147-.064-.279-.218-.445-.29-.139-.06-.282-.172-.418-.27a13.9 13.9 0 00-.15-.107c-.134-.058-.293-.181-.418-.27l-.545-.39c-.195-.084-.411-.279-.598-.413-.156-.111-.366-.23-.482-.359l-.32-.228c-.222-.159-.442-.316-.635-.482l-.319-.228c-.154-.17-.422-.299-.575-.467l-.216-.155c-.112-.123-.304-.231-.415-.353l-.188-.134c-.084-.094-.236-.192-.321-.286l-.15-.107c-.293-.326-.723-.572-1.01-.892l-.268-.22c-.37-.416-.871-.751-1.229-1.161-.097-.111-.206-.162-.302-.272-.33-.384-.752-.726-1.07-1.105-.052-.062-.103-.077-.156-.14-.149-.179-.343-.365-.488-.547-.068-.085-.141-.121-.208-.205-.503-.635-1.095-1.202-1.582-1.839-.863-1.128-1.764-2.229-2.446-3.391-.155-.263-.339-.483-.489-.746-.265-.464-.555-.922-.805-1.396a63.73 63.73 0 01-1.111-2.239c-.25-.526-.448-1.092-.653-1.629-.169-.44-.329-.868-.484-1.309-.152-.433-.261-.884-.404-1.322-.144-.446-.203-.918-.344-1.366-.054-.17-.048-.384-.101-.553-.131-.418-.163-.872-.235-1.301-.306-1.833-.338-3.709-.204-5.615.031-.44.123-.856.195-1.305.033-.205.1-.465.327-.617a.725.725 0 01.386-.064c.069.019.123.078.187.077z" clip-rule="evenodd" opacity=".2"/>
</svg>
